<?xml version="1.0" standalone="no"?>
<!DOCTYPE svg PUBLIC "-//W3C//DTD SVG 20010904//EN"
 "http://www.w3.org/TR/2001/REC-SVG-20010904/DTD/svg10.dtd">
<svg version="1.0" xmlns="http://www.w3.org/2000/svg"
 width="4096.000000pt" height="4096.000000pt" viewBox="0 0 4096.000000 4096.000000"
 preserveAspectRatio="xMidYMid meet">
<metadata>
Created by potrace 1.16, written by Peter Selinger 2001-2019
</metadata>
<g transform="translate(0.000000,4096.000000) scale(0.100000,-0.100000)"
fill="#000000" stroke="none">
<path d="M16650 40930 c0 -25 -4 -30 -23 -30 -45 0 -183 -42 -265 -80 -217
-102 -381 -259 -484 -465 -83 -164 -110 -281 -109 -477 l1 -138 -4069 0
c-2834 0 -4093 -3 -4148 -11 -442 -60 -808 -433 -865 -881 -33 -261 93 -575
313 -784 162 -153 367 -248 594 -274 122 -13 25725 -14 25845 0 353 40 645
240 803 548 82 159 125 344 112 476 -42 425 -333 769 -757 894 l-93 27 -4116
3 -4117 2 -4 168 c-6 192 -22 269 -87 408 -76 161 -187 297 -331 405 -108 80
-350 179 -439 179 -17 0 -21 6 -21 30 l0 30 -3870 0 -3870 0 0 -30z"/>
<path d="M8663 36534 c-414 -50 -808 -210 -1151 -466 -124 -93 -357 -325 -448
-448 -247 -331 -397 -689 -461 -1100 -17 -110 -18 -778 -18 -16220 0 -15627 1
-16109 19 -16225 106 -692 476 -1266 1066 -1655 269 -177 692 -328 998 -356
71 -7 72 -7 72 -35 l0 -29 11740 0 11740 0 0 29 c0 28 1 28 73 35 220 20 532
112 762 225 230 113 416 244 604 426 380 368 613 824 697 1360 19 117 19 526
19 16220 0 13177 -2 16116 -13 16190 -63 432 -210 793 -466 1135 -94 126 -326
357 -456 454 -317 236 -668 385 -1070 453 -100 17 -619 18 -11850 19 -9864 2
-11763 0 -11857 -12z m23486 -1944 c35 -6 81 -20 103 -31 60 -31 124 -102 147
-165 l21 -55 0 -16039 c0 -16036 0 -16039 -20 -16093 -29 -76 -79 -130 -158
-169 l-67 -33 -11695 0 -11695 0 -55 26 c-74 34 -120 76 -156 141 l-29 53 -3
16057 -2 16057 21 55 c37 100 132 177 241 195 79 13 23266 14 23347 1z"/>
<path d="M13043 32076 c-143 -27 -299 -91 -409 -166 -69 -48 -180 -156 -236
-230 -68 -89 -143 -245 -176 -365 l-27 -100 0 -12900 c0 -10556 2 -12912 13
-12965 56 -281 210 -513 443 -669 193 -130 434 -192 626 -161 418 67 740 363
846 777 l22 88 0 12915 0 12915 -24 89 c-85 322 -303 580 -595 703 -163 69
-346 95 -483 69z"/>
<path d="M20353 32076 c-224 -43 -408 -141 -559 -298 -92 -96 -129 -147 -180
-248 -50 -99 -82 -199 -99 -305 -13 -79 -15 -1700 -15 -12925 0 -11329 2
-12846 15 -12927 69 -426 386 -756 810 -844 110 -23 187 -24 292 -4 277 53
514 208 666 437 89 133 137 255 162 413 13 79 15 1705 15 12925 0 11225 -2
12846 -15 12925 -23 145 -75 281 -155 403 -58 91 -193 226 -287 289 -200 133
-457 196 -650 159z"/>
<path d="M27705 32084 c-159 -26 -313 -84 -438 -168 -109 -72 -247 -217 -312
-327 -61 -103 -120 -275 -135 -389 -8 -61 -10 -3792 -8 -12955 l3 -12870 26
-95 c112 -399 412 -679 812 -755 100 -19 174 -19 274 0 422 80 739 398 825
825 11 53 13 2409 13 12965 l0 12900 -27 100 c-102 374 -388 656 -753 746 -81
19 -225 31 -280 23z"/>
</g>
</svg>
