<?xml version="1.0" standalone="no"?>
<!DOCTYPE svg PUBLIC "-//W3C//DTD SVG 20010904//EN"
 "http://www.w3.org/TR/2001/REC-SVG-20010904/DTD/svg10.dtd">
<svg version="1.0" xmlns="http://www.w3.org/2000/svg"
 width="4096.000000pt" height="4096.000000pt" viewBox="0 0 4096.000000 4096.000000"
 preserveAspectRatio="xMidYMid meet">
<metadata>
Created by potrace 1.16, written by Peter Selinger 2001-2019
</metadata>
<g transform="translate(0.000000,4096.000000) scale(0.100000,-0.100000)"
fill="#000000" stroke="none">
<path d="M13210 40930 l0 -30 -67 0 c-152 0 -692 -48 -1023 -90 -1907 -246
-3727 -879 -5365 -1868 -1405 -848 -2657 -1947 -3690 -3237 -1632 -2038 -2650
-4489 -2939 -7075 -31 -275 -54 -543 -63 -735 l-6 -145 -29 0 -28 0 0 -605 0
-605 30 0 30 0 0 -62 c0 -95 27 -444 55 -713 178 -1689 667 -3314 1448 -4808
919 -1761 2231 -3303 3832 -4503 1712 -1284 3718 -2136 5849 -2484 1275 -208
2513 -233 3791 -74 2573 319 4993 1354 7010 2997 82 67 185 152 228 189 75 65
81 68 130 68 l52 0 8445 -8444 c7869 -7867 8451 -8447 8530 -8495 152 -92 345
-151 495 -151 89 0 227 29 330 69 252 97 479 324 576 576 40 103 69 241 69
330 0 151 -59 345 -152 495 -48 79 -683 717 -8495 8533 l-8443 8448 0 50 c0
48 2 52 108 177 691 812 1318 1768 1811 2762 856 1725 1333 3572 1422 5510 15
322 6 1093 -15 1400 -163 2324 -865 4458 -2097 6382 -377 588 -823 1170 -1333
1738 -173 192 -742 762 -931 931 -407 364 -724 622 -1125 914 -203 148 -641
441 -850 569 -1797 1100 -3789 1750 -5915 1930 -99 9 -247 19 -328 22 l-147 7
0 29 0 28 -600 0 -600 0 0 -30z m1190 -1980 c1628 -82 3146 -478 4570 -1190
2185 -1094 3982 -2899 5060 -5085 910 -1846 1302 -3906 1145 -6015 -183 -2451
-1122 -4764 -2701 -6656 -240 -288 -414 -476 -743 -804 -376 -375 -600 -578
-949 -858 -1848 -1484 -4068 -2368 -6422 -2557 -600 -48 -1324 -48 -1930 1
-2346 186 -4551 1079 -6345 2569 -467 388 -995 910 -1405 1390 -1381 1615
-2295 3674 -2579 5810 -78 583 -96 888 -96 1600 0 687 14 926 86 1503 257
2068 1094 4083 2379 5728 1773 2270 4249 3803 7028 4354 586 116 1141 182
1787 213 160 8 943 6 1115 -3z"/>
</g>
</svg>
