<?xml version="1.0" standalone="no"?>
<!DOCTYPE svg PUBLIC "-//W3C//DTD SVG 20010904//EN"
 "http://www.w3.org/TR/2001/REC-SVG-20010904/DTD/svg10.dtd">
<svg version="1.0" xmlns="http://www.w3.org/2000/svg"
 width="512.000000pt" height="512.000000pt" viewBox="0 0 512.000000 512.000000"
 preserveAspectRatio="xMidYMid meet">
<metadata>
Created by potrace 1.16, written by Peter Selinger 2001-2019
</metadata>
<g transform="translate(0.000000,512.000000) scale(0.100000,-0.100000)"
fill="#000000" stroke="none">
<path d="M1220 4875 c-140 -26 -242 -60 -363 -121 -352 -178 -622 -522 -740
-944 -27 -96 -57 -253 -57 -296 0 -20 -5 -24 -30 -24 l-30 0 0 -105 0 -105 29
0 c28 0 28 -1 35 -67 24 -244 163 -617 322 -868 170 -269 222 -320 1229 -1235
501 -454 915 -829 922 -833 16 -10 1831 1609 1939 1730 273 304 450 634 543
1014 17 68 33 154 37 192 7 66 7 67 35 67 l29 0 0 105 0 105 -30 0 c-25 0 -30
4 -30 24 0 43 -30 200 -57 296 -118 424 -392 770 -749 947 -296 147 -587 171
-894 72 -284 -91 -547 -286 -711 -529 l-54 -79 -50 0 -50 0 -47 72 c-235 363
-658 600 -1063 596 -55 -1 -129 -7 -165 -14z m437 -109 c395 -86 675 -332 858
-754 l32 -73 18 48 c150 400 487 694 890 778 176 36 437 29 605 -16 355 -97
658 -392 807 -787 234 -623 51 -1383 -467 -1935 -45 -48 -469 -433 -942 -855
l-860 -767 -49 -3 -49 -3 -858 779 c-830 754 -964 882 -1071 1023 -249 330
-398 726 -417 1109 -13 265 50 580 161 800 183 364 509 612 875 665 120 18
368 13 467 -9z"/>
</g>
</svg>
