<?xml version="1.0" standalone="no"?>
<!DOCTYPE svg PUBLIC "-//W3C//DTD SVG 20010904//EN"
 "http://www.w3.org/TR/2001/REC-SVG-20010904/DTD/svg10.dtd">
<svg version="1.0" xmlns="http://www.w3.org/2000/svg"
 width="512.000000pt" height="512.000000pt" viewBox="0 0 512.000000 512.000000"
 preserveAspectRatio="xMidYMid meet">
<metadata>
Created by potrace 1.16, written by Peter Selinger 2001-2019
</metadata>
<g transform="translate(0.000000,512.000000) scale(0.100000,-0.100000)"
fill="#000000" stroke="none">
<path d="M3990 4930 c-41 -11 -113 -38 -160 -61 l-85 -42 -1838 -1836 c-1011
-1010 -1840 -1846 -1843 -1859 -5 -16 -13 -22 -35 -22 -19 0 -29 -5 -29 -15 0
-10 10 -15 29 -15 22 0 31 -6 36 -23 11 -34 841 -862 885 -882 35 -16 40 -16
71 -1 20 9 817 799 1855 1838 1985 1987 1870 1865 1929 2042 49 145 44 276
-16 425 -131 328 -493 533 -799 451z m245 -291 c116 -21 208 -88 262 -191 27
-51 28 -58 28 -203 0 -197 -3 -203 -194 -397 l-145 -148 -50 0 -51 0 -247 247
-248 248 0 51 0 50 148 145 c95 94 164 153 194 168 81 38 196 50 303 30z
m-593 -886 l248 -248 0 -50 0 -50 -1427 -1427 -1428 -1428 -50 0 -50 0 -247
247 -248 248 0 50 0 50 1427 1427 1428 1428 50 0 50 0 247 -247z"/>
<path d="M1345 4776 c-38 -17 -90 -72 -104 -109 -6 -16 -11 -82 -11 -148 l0
-119 -117 0 c-92 0 -127 -4 -158 -19 -46 -21 -102 -79 -111 -118 -10 -37 28
-105 79 -140 38 -27 46 -28 174 -31 l133 -4 0 -127 c0 -123 1 -129 29 -173 19
-31 44 -52 75 -67 l46 -23 46 23 c31 15 56 36 75 67 28 44 29 50 29 173 l0
127 133 4 c124 3 136 5 173 29 50 33 90 104 80 142 -9 39 -65 97 -111 118 -31
15 -66 19 -157 19 l-116 0 -4 134 c-3 148 -8 161 -79 217 -45 35 -68 41 -104
25z"/>
<path d="M4481 2408 c-84 -41 -111 -105 -111 -259 l0 -109 -109 0 c-154 0
-218 -27 -259 -111 -19 -39 -20 -45 -6 -78 39 -93 97 -120 257 -121 l117 0 0
-109 c0 -117 9 -158 47 -209 30 -40 95 -74 127 -66 37 9 97 64 117 108 15 32
19 66 19 159 l0 117 118 0 c92 0 126 4 158 19 41 18 104 84 104 108 0 8 12 13
30 13 20 0 30 5 30 15 0 10 -10 15 -29 15 -22 0 -31 6 -41 30 -17 41 -71 87
-117 99 -21 6 -86 11 -145 11 l-108 0 0 118 c-1 159 -28 217 -121 256 -33 14
-39 13 -78 -6z"/>
</g>
</svg>
