<?xml version="1.0" standalone="no"?>
<!DOCTYPE svg PUBLIC "-//W3C//DTD SVG 20010904//EN"
 "http://www.w3.org/TR/2001/REC-SVG-20010904/DTD/svg10.dtd">
<svg version="1.0" xmlns="http://www.w3.org/2000/svg"
 width="512.000000pt" height="512.000000pt" viewBox="0 0 512.000000 512.000000"
 preserveAspectRatio="xMidYMid meet">
<metadata>
Created by potrace 1.16, written by Peter Selinger 2001-2019
</metadata>
<g transform="translate(0.000000,512.000000) scale(0.100000,-0.100000)"
fill="#000000" stroke="none">
<path d="M4779 5040 c-40 -21 -1899 -1727 -1899 -1743 0 -5 4 -7 10 -5 5 2
420 381 921 843 502 462 926 848 943 858 39 22 155 23 196 2 50 -26 60 -51 60
-146 0 -73 -3 -91 -22 -118 -13 -17 -565 -620 -1228 -1340 l-1205 -1310 -55 0
-55 -1 -183 183 -182 182 1 50 1 50 283 259 c156 143 281 264 278 269 -3 5
-15 0 -27 -11 -239 -212 -622 -575 -927 -880 l-387 -385 -148 7 c-132 6 -158
5 -229 -13 -166 -43 -358 -162 -459 -286 -152 -187 -205 -370 -206 -710 0
-121 -18 -222 -48 -281 -11 -22 -44 -68 -72 -104 -29 -35 -59 -79 -68 -97 -12
-26 -22 -33 -44 -33 -21 0 -28 -5 -28 -20 0 -15 7 -20 29 -20 22 0 30 -6 35
-23 17 -67 125 -142 224 -154 49 -5 52 -7 52 -34 l0 -29 680 0 680 0 0 26 c0
15 8 33 18 40 16 13 16 15 -2 29 -17 13 -67 15 -308 15 l-288 0 0 53 0 53 78
38 c98 48 250 150 324 215 96 87 198 235 242 354 l24 62 346 3 c295 2 351 0
376 -13 37 -19 56 -55 63 -122 7 -66 36 -121 83 -163 64 -56 92 -63 289 -69
165 -6 183 -8 211 -28 49 -35 64 -78 64 -181 0 -98 -15 -133 -73 -176 -28 -21
-40 -21 -547 -26 -411 -4 -522 -8 -532 -18 -11 -11 -10 -16 5 -26 9 -7 17 -25
17 -40 l0 -26 465 0 465 0 0 30 c0 22 5 30 18 30 32 1 107 41 145 78 41 39 80
107 91 158 16 75 -67 204 -165 255 -40 21 -62 24 -224 29 -116 3 -188 10 -202
18 -32 18 -53 52 -53 87 0 66 -30 136 -80 185 -74 75 -100 80 -440 80 l-287 0
-7 177 -8 176 390 391 c301 303 651 676 1548 1651 637 693 1188 1293 1226
1333 37 40 73 89 80 108 10 28 17 34 40 34 23 0 28 4 28 25 0 21 -5 25 -27 25
-24 0 -31 7 -46 45 -10 24 -37 61 -59 81 -73 65 -141 80 -209 44z m-2532
-2792 l183 -183 0 -55 0 -55 -292 -292 -293 -293 -52 0 c-49 0 -54 2 -69 33
-54 107 -195 248 -307 307 -46 25 -47 26 -47 75 l0 50 297 297 298 298 50 0
50 0 182 -182z m-973 -514 c226 -58 412 -240 471 -464 23 -87 20 -317 -5 -408
-94 -339 -428 -595 -908 -696 -169 -36 -336 -56 -462 -56 -131 0 -200 13 -234
45 -24 22 -26 31 -26 103 l0 79 60 76 c115 144 144 250 154 557 8 253 40 360
151 508 85 112 244 219 385 256 78 21 333 21 414 0z"/>
</g>
</svg>
