<?xml version="1.0" standalone="no"?>
<!DOCTYPE svg PUBLIC "-//W3C//DTD SVG 20010904//EN"
 "http://www.w3.org/TR/2001/REC-SVG-20010904/DTD/svg10.dtd">
<svg version="1.0" xmlns="http://www.w3.org/2000/svg"
 width="512.000000pt" height="512.000000pt" viewBox="0 0 512.000000 512.000000"
 preserveAspectRatio="xMidYMid meet">
<metadata>
Created by potrace 1.16, written by Peter Selinger 2001-2019
</metadata>
<g transform="translate(0.000000,512.000000) scale(0.100000,-0.100000)"
fill="#000000" stroke="none">
<path d="M840 5092 c0 -23 -6 -30 -36 -41 -48 -17 -110 -75 -136 -125 -11 -22
-23 -66 -25 -98 l-6 -58 -124 0 c-118 0 -125 -1 -148 -25 l-25 -24 0 -321 0
-321 25 -24 c23 -24 30 -25 148 -25 l124 0 6 -58 c9 -102 65 -179 162 -224 48
-22 63 -23 322 -26 l271 -4 4 -221 c5 -250 8 -265 81 -344 46 -50 125 -93 172
-93 78 0 185 84 228 179 19 41 22 69 25 263 l4 218 593 2 c486 3 595 5 609 17
12 10 14 17 5 27 -9 12 -116 14 -610 14 l-599 0 0 381 c0 365 1 383 20 414 30
49 74 65 172 65 65 0 90 -4 115 -20 60 -36 67 -59 74 -225 6 -164 15 -195 80
-269 38 -44 122 -86 171 -86 85 0 200 93 232 187 13 39 16 106 16 420 l0 374
723 -3 c658 -3 725 -5 753 -20 64 -35 64 -31 64 -598 0 -560 0 -557 -58 -597
-25 -16 -63 -18 -439 -23 -418 -5 -456 -9 -417 -41 14 -11 84 -14 389 -14
l371 0 59 30 c37 19 72 46 92 73 54 71 63 120 63 345 l0 199 130 -4 130 -3 32
-33 33 -32 3 -379 3 -380 -31 -34 c-17 -19 -41 -38 -54 -41 -23 -6 -542 -97
-1486 -262 -223 -39 -394 -74 -423 -86 -62 -27 -123 -96 -142 -161 -10 -35
-15 -96 -15 -199 l0 -148 -124 0 c-123 0 -125 0 -145 -26 -19 -24 -21 -40 -21
-175 l0 -147 -34 -12 c-19 -6 -38 -21 -45 -36 -8 -18 -11 -261 -11 -892 0
-941 -1 -921 55 -1033 50 -98 160 -191 259 -219 41 -11 46 -16 46 -41 0 -28 2
-29 50 -29 49 0 50 1 50 30 0 23 5 30 19 30 39 0 158 70 208 122 121 129 133
177 133 551 0 274 -5 327 -29 327 -22 0 -26 -57 -31 -385 l-5 -350 -27 -51
c-15 -28 -48 -70 -73 -92 -69 -60 -121 -74 -263 -70 -101 3 -124 6 -165 28
-58 29 -112 86 -141 149 -21 46 -21 50 -24 979 l-2 932 350 0 350 0 0 -413 c0
-337 3 -417 14 -432 12 -16 16 -17 30 -6 14 12 16 60 16 433 0 258 -4 426 -10
438 -5 10 -26 24 -45 30 l-35 12 0 147 c0 135 -2 151 -21 175 -20 26 -22 26
-145 26 l-124 0 0 193 c0 172 2 195 20 224 10 17 28 37 40 43 11 6 417 80 903
165 485 85 910 159 943 166 120 21 206 96 235 202 6 23 9 153 7 335 -3 284 -4
299 -25 338 -28 53 -74 99 -127 126 -31 17 -64 23 -138 26 l-98 4 0 197 c0
222 -9 272 -63 343 -19 25 -53 53 -84 68 -43 21 -52 30 -52 53 l-1 27 -1675 0
-1675 0 0 -28z m562 -302 c3 -238 9 -269 43 -240 13 11 15 47 15 241 l0 229
635 0 635 0 0 -414 c0 -413 0 -413 -23 -447 -33 -50 -78 -69 -167 -69 -85 0
-131 18 -164 63 -18 25 -22 48 -27 180 -5 138 -8 157 -32 203 -53 104 -173
177 -254 155 -51 -14 -125 -62 -150 -97 -62 -88 -58 -39 -63 -734 -6 -704 -2
-672 -72 -722 -29 -20 -45 -23 -125 -23 -99 0 -123 10 -167 69 -20 27 -21 42
-26 541 -5 527 -8 561 -42 527 -10 -10 -14 -76 -16 -243 l-3 -230 -309 3
c-295 3 -310 4 -337 24 -54 40 -53 30 -53 592 0 550 0 555 44 592 30 24 81 28
368 29 l287 1 3 -230z m-762 -390 l0 -310 -120 0 -120 0 0 310 0 310 120 0
120 0 0 -310z m2220 -1995 l0 -145 -260 0 -260 0 0 145 0 145 260 0 260 0 0
-145z"/>
</g>
</svg>
