<?xml version="1.0" standalone="no"?>
<!DOCTYPE svg PUBLIC "-//W3C//DTD SVG 20010904//EN"
 "http://www.w3.org/TR/2001/REC-SVG-20010904/DTD/svg10.dtd">
<svg version="1.0" xmlns="http://www.w3.org/2000/svg"
 width="512.000000pt" height="512.000000pt" viewBox="0 0 512.000000 512.000000"
 preserveAspectRatio="xMidYMid meet">
<metadata>
Created by potrace 1.16, written by Peter Selinger 2001-2019
</metadata>
<g transform="translate(0.000000,512.000000) scale(0.100000,-0.100000)"
fill="#000000" stroke="none">
<path d="M2390 5090 c0 -28 -3 -30 -37 -30 -21 0 -92 -9 -159 -20 -909 -148
-1661 -769 -1990 -1643 -71 -188 -144 -508 -144 -629 0 -35 -2 -38 -30 -38
l-30 0 0 -170 0 -170 30 0 c28 0 30 -3 30 -37 0 -21 9 -92 20 -159 148 -909
769 -1661 1643 -1990 188 -71 508 -144 630 -144 34 0 37 -2 37 -30 l0 -30 170
0 170 0 0 30 c0 28 3 30 38 30 59 0 268 37 395 69 881 228 1600 947 1828 1828
32 127 69 336 69 396 0 34 2 37 30 37 l30 0 0 170 0 170 -30 0 c-28 0 -30 3
-30 38 0 59 -37 268 -69 395 -228 881 -947 1600 -1828 1828 -127 32 -336 69
-395 69 -35 0 -38 2 -38 30 l0 30 -170 0 -170 0 0 -30z m408 -130 c646 -58
1214 -356 1631 -855 154 -185 310 -456 395 -688 142 -385 183 -864 110 -1295
-140 -830 -725 -1535 -1517 -1826 -385 -142 -864 -183 -1295 -110 -830 140
-1535 725 -1826 1517 -168 454 -192 1010 -65 1504 207 807 875 1475 1682 1682
279 72 596 97 885 71z"/>
<path d="M2531 3754 c-21 -26 -21 -35 -21 -585 l0 -559 -584 0 -585 0 -28 -25
-28 -25 28 -25 28 -25 585 0 584 0 0 -609 0 -610 25 -28 25 -28 25 28 25 28 0
610 0 609 584 0 585 0 28 25 28 25 -28 25 -28 25 -585 0 -584 0 0 559 c0 550
0 559 -21 585 -11 14 -24 26 -29 26 -5 0 -18 -12 -29 -26z"/>
</g>
</svg>
