<?xml version="1.0" standalone="no"?>
<!DOCTYPE svg PUBLIC "-//W3C//DTD SVG 20010904//EN"
 "http://www.w3.org/TR/2001/REC-SVG-20010904/DTD/svg10.dtd">
<svg version="1.0" xmlns="http://www.w3.org/2000/svg"
 width="512.000000pt" height="512.000000pt" viewBox="0 0 512.000000 512.000000"
 preserveAspectRatio="xMidYMid meet">
<metadata>
Created by potrace 1.16, written by Peter Selinger 2001-2019
</metadata>
<g transform="translate(0.000000,512.000000) scale(0.100000,-0.100000)"
fill="#000000" stroke="none">
<path d="M3692 5093 c-1 -18 -7 -33 -14 -33 -16 0 -705 -687 -723 -721 -12
-22 -12 -29 4 -55 10 -16 33 -42 50 -58 27 -26 31 -37 31 -80 l0 -51 -859
-429 c-472 -236 -867 -437 -877 -445 -10 -9 -26 -27 -35 -41 -8 -14 -285 -699
-614 -1522 -596 -1492 -599 -1498 -627 -1498 -15 0 -28 -4 -28 -10 0 -5 11
-10 24 -10 32 0 116 -84 116 -116 0 -13 5 -24 10 -24 6 0 10 13 10 28 0 28 6
31 1498 627 823 329 1508 606 1522 614 14 9 32 25 41 35 8 10 209 405 445 877
l429 859 51 0 c43 0 54 -4 80 -31 16 -17 42 -40 58 -50 26 -16 33 -16 55 -4
33 17 721 707 721 722 0 7 15 14 33 16 l32 4 -32 1 c-19 1 -33 7 -33 14 0 16
-1319 1336 -1342 1344 -10 3 -18 18 -21 37 l-4 32 -1 -32z m580 -820 l528
-528 0 -50 0 -50 -217 -217 -218 -218 -50 0 -50 0 -527 527 -528 528 0 50 0
50 217 217 218 218 50 0 50 0 527 -527z m-655 -655 l343 -343 0 -52 c0 -50
-27 -108 -437 -927 l-437 -874 -1115 -446 c-923 -369 -1124 -446 -1164 -446
l-47 0 0 53 0 52 623 623 624 624 69 -4 c38 -3 95 -11 127 -18 47 -12 66 -12
105 -2 153 41 272 151 323 299 24 71 24 115 0 186 -47 137 -151 241 -289 288
-70 24 -114 24 -185 0 -137 -47 -241 -151 -288 -289 -23 -66 -24 -115 -4 -172
8 -23 15 -70 15 -104 l0 -61 -622 -622 -623 -623 -52 0 -53 0 0 47 c0 40 77
241 446 1164 l446 1115 872 437 c824 413 874 436 926 436 l55 1 342 -342z
m-1243 -1197 c54 -36 66 -66 66 -171 0 -105 -12 -135 -66 -171 -23 -15 -48
-19 -124 -19 -76 0 -101 4 -124 19 -54 36 -66 66 -66 171 0 105 12 135 66 171
42 27 206 27 248 0z"/>
</g>
</svg>
