<?xml version="1.0" standalone="no"?>
<!DOCTYPE svg PUBLIC "-//W3C//DTD SVG 20010904//EN"
 "http://www.w3.org/TR/2001/REC-SVG-20010904/DTD/svg10.dtd">
<svg version="1.0" xmlns="http://www.w3.org/2000/svg"
 width="225.000000pt" height="225.000000pt" viewBox="0 0 225.000000 225.000000"
 preserveAspectRatio="xMidYMid meet">

<g transform="translate(0.000000,225.000000) scale(0.100000,-0.100000)"
fill="#000000" stroke="none">
<path d="M665 1710 c-253 -298 -468 -551 -477 -564 -18 -23 -17 -24 456 -580
261 -307 478 -556 483 -555 4 1 64 68 133 149 69 81 276 324 460 541 184 217
341 401 347 410 14 17 23 6 -688 839 -119 140 -225 265 -235 277 l-19 23 -460
-540z"/>
</g>
</svg>
