<?xml version="1.0" standalone="no"?>
<!DOCTYPE svg PUBLIC "-//W3C//DTD SVG 20010904//EN"
 "http://www.w3.org/TR/2001/REC-SVG-20010904/DTD/svg10.dtd">
<svg version="1.0" xmlns="http://www.w3.org/2000/svg"
 width="512.000000pt" height="512.000000pt" viewBox="0 0 512.000000 512.000000"
 preserveAspectRatio="xMidYMid meet">
<metadata>
Created by potrace 1.16, written by Peter Selinger 2001-2019
</metadata>
<g transform="translate(0.000000,512.000000) scale(0.100000,-0.100000)"
fill="#000000" stroke="none">
<path d="M1505 5004 c-157 -107 -249 -235 -275 -381 -11 -58 -10 -78 4 -132 9
-36 226 -566 481 -1179 404 -967 465 -1120 465 -1164 0 -42 -18 -91 -117 -315
l-118 -264 -70 4 c-47 2 -91 13 -132 30 -87 38 -213 60 -293 53 -197 -20 -404
-124 -539 -272 -119 -130 -206 -326 -218 -488 -26 -365 287 -757 661 -828 62
-12 66 -14 66 -40 l0 -28 75 0 75 0 0 29 c0 26 4 29 43 34 80 11 218 69 307
128 137 91 229 200 300 352 54 115 70 187 81 361 18 281 57 431 160 611 l43
75 56 0 56 0 44 -76 c95 -166 141 -335 159 -585 21 -280 109 -481 284 -651
102 -100 277 -194 395 -213 38 -6 42 -9 42 -36 l0 -29 80 0 80 0 0 30 c0 26 3
30 29 30 36 0 166 42 234 76 283 142 482 464 464 749 -25 388 -331 709 -732
767 -71 10 -95 9 -170 -6 -49 -9 -123 -30 -164 -46 -52 -20 -94 -30 -132 -30
l-55 0 -117 265 c-96 218 -117 274 -117 313 0 41 72 221 465 1164 256 613 472
1144 481 1179 14 54 15 74 4 132 -16 88 -68 192 -131 261 -67 74 -222 179
-250 171 -27 -9 -23 -2 -505 -1092 l-389 -883 -55 0 -55 0 -219 498 c-528
1196 -646 1457 -662 1469 -26 19 -32 17 -119 -43z m1183 -2629 c84 -36 123
-103 130 -220 5 -100 -9 -155 -54 -205 -53 -58 -86 -70 -204 -70 -118 0 -151
12 -204 70 -45 50 -59 105 -54 205 7 116 46 183 128 219 48 21 208 21 258 1z
m-1016 -1074 c132 -45 229 -145 273 -279 13 -42 16 -81 13 -190 -3 -129 -5
-141 -34 -203 -59 -124 -183 -217 -320 -239 -386 -63 -637 188 -574 574 26
160 141 293 295 342 66 21 281 18 347 -5z m2179 -17 c124 -59 217 -183 239
-320 63 -386 -188 -637 -574 -574 -137 22 -261 115 -320 239 -29 62 -31 74
-34 203 -3 109 0 148 13 190 43 132 139 232 269 279 42 15 76 18 196 16 139
-2 148 -3 211 -33z"/>
</g>
</svg>
