<?xml version="1.0" standalone="no"?>
<!DOCTYPE svg PUBLIC "-//W3C//DTD SVG 20010904//EN"
 "http://www.w3.org/TR/2001/REC-SVG-20010904/DTD/svg10.dtd">
<svg version="1.0" xmlns="http://www.w3.org/2000/svg"
 width="512.000000pt" height="512.000000pt" viewBox="0 0 512.000000 512.000000"
 preserveAspectRatio="xMidYMid meet">
<metadata>
Created by potrace 1.16, written by Peter Selinger 2001-2019
</metadata>
<g transform="translate(0.000000,512.000000) scale(0.100000,-0.100000)"
fill="#000000" stroke="none">
<path d="M200 5093 c0 -15 -10 -37 -22 -51 -23 -23 -23 -26 -23 -318 l0 -294
28 -27 c26 -27 32 -28 147 -31 l120 -4 0 -723 0 -723 -120 -3 c-115 -4 -121
-5 -147 -32 l-28 -27 0 -300 0 -300 28 -27 c26 -27 32 -28 147 -32 l120 -3 0
-723 0 -723 -120 -4 c-115 -3 -121 -4 -147 -31 l-28 -27 0 -294 c0 -292 0
-295 22 -318 13 -14 23 -36 23 -51 l0 -27 285 0 285 0 0 25 c0 13 11 35 25 49
24 24 25 30 25 151 l0 125 705 0 705 0 0 -128 c0 -116 2 -131 20 -147 11 -10
20 -31 20 -47 l0 -28 290 0 290 0 0 28 c0 16 9 37 20 47 18 16 20 31 20 147
l0 128 705 0 705 0 0 -125 c0 -121 1 -127 25 -151 14 -14 25 -36 25 -49 l0
-25 285 0 285 0 0 27 c0 15 10 37 22 51 23 23 23 26 23 318 l0 294 -28 27
c-26 27 -32 28 -147 31 l-120 4 0 723 0 723 120 3 c115 4 121 5 147 32 l28 27
0 300 0 300 -28 27 c-26 27 -32 28 -147 32 l-120 3 0 723 0 723 120 4 c115 3
121 4 147 31 l28 27 0 294 c0 292 0 295 -22 318 -13 14 -23 36 -23 51 l0 27
-285 0 -285 0 0 -25 c0 -13 -11 -35 -25 -49 -24 -24 -25 -30 -25 -151 l0 -125
-705 0 -705 0 0 128 c0 116 -2 131 -20 147 -11 10 -20 31 -20 47 l0 28 -290 0
-290 0 0 -28 c0 -16 -9 -37 -20 -47 -18 -16 -20 -31 -20 -147 l0 -128 -705 0
-705 0 0 125 c0 121 -1 127 -25 151 -14 14 -25 36 -25 49 l0 25 -285 0 -285 0
0 -27z m540 -368 l0 -265 -250 0 -250 0 0 265 0 265 250 0 250 0 0 -265z
m2070 0 l0 -265 -250 0 -250 0 0 265 0 265 250 0 250 0 0 -265z m2070 0 l0
-265 -250 0 -250 0 0 265 0 265 250 0 250 0 0 -265z m-2650 -168 c0 -131 1
-134 26 -158 l26 -24 278 0 278 0 26 24 c25 24 26 27 26 158 l0 133 705 0 705
0 0 -129 c0 -123 1 -131 24 -158 24 -27 27 -28 145 -32 l121 -3 0 -724 0 -724
-100 0 c-109 0 -161 -14 -179 -48 -15 -28 -15 -596 0 -624 18 -34 70 -48 179
-48 l100 0 0 -724 0 -724 -121 -3 c-118 -4 -121 -5 -145 -32 -23 -27 -24 -35
-24 -158 l0 -129 -705 0 -705 0 0 133 c0 131 -1 134 -26 158 l-26 24 -278 0
-278 0 -26 -24 c-25 -24 -26 -27 -26 -158 l0 -133 -705 0 -705 0 0 129 c0 123
-1 131 -24 158 -24 27 -27 28 -145 32 l-121 3 0 724 0 724 100 0 c109 0 161
14 179 48 15 28 15 596 0 624 -18 34 -70 48 -179 48 l-100 0 0 724 0 724 121
3 c118 4 121 5 145 32 23 27 24 35 24 158 l0 129 705 0 705 0 0 -133z m-1490
-1997 l0 -270 -250 0 -250 0 0 270 0 270 250 0 250 0 0 -270z m4140 0 l0 -270
-250 0 -250 0 0 270 0 270 250 0 250 0 0 -270z m-4140 -2165 l0 -265 -250 0
-250 0 0 265 0 265 250 0 250 0 0 -265z m2070 0 l0 -265 -250 0 -250 0 0 265
0 265 250 0 250 0 0 -265z m2070 0 l0 -265 -250 0 -250 0 0 265 0 265 250 0
250 0 0 -265z"/>
</g>
</svg>
