<?xml version="1.0" standalone="no"?>
<!DOCTYPE svg PUBLIC "-//W3C//DTD SVG 20010904//EN"
 "http://www.w3.org/TR/2001/REC-SVG-20010904/DTD/svg10.dtd">
<svg version="1.0" xmlns="http://www.w3.org/2000/svg"
 width="1024.000000pt" height="1024.000000pt" viewBox="0 0 1024.000000 1024.000000"
 preserveAspectRatio="xMidYMid meet">

<g transform="translate(0.000000,1024.000000) scale(0.100000,-0.100000)"
fill="#000000" stroke="none">
<path d="M3278 5106 c-1011 -1993 -1838 -3626 -1838 -3630 0 -3 1656 -6 3680
-6 2024 0 3680 3 3680 6 0 11 -3675 7254 -3680 7254 -3 0 -832 -1631 -1842
-3624z m3582 -68 c954 -1882 1737 -3425 1738 -3430 2 -4 -1563 -8 -3478 -8
-1915 0 -3480 4 -3478 8 14 36 3474 6851 3478 6851 3 0 786 -1539 1740 -3421z"/>
</g>
</svg>
