<?xml version="1.0" standalone="no"?>
<!DOCTYPE svg PUBLIC "-//W3C//DTD SVG 20010904//EN"
 "http://www.w3.org/TR/2001/REC-SVG-20010904/DTD/svg10.dtd">
<svg version="1.0" xmlns="http://www.w3.org/2000/svg"
 width="512.000000pt" height="512.000000pt" viewBox="0 0 512.000000 512.000000"
 preserveAspectRatio="xMidYMid meet">
<metadata>
Created by potrace 1.16, written by Peter Selinger 2001-2019
</metadata>
<g transform="translate(0.000000,512.000000) scale(0.100000,-0.100000)"
fill="#000000" stroke="none">
<path d="M4210 5090 c0 -25 -4 -30 -24 -30 -67 0 -233 -69 -336 -141 -30 -20
-823 -806 -1763 -1746 l-1707 -1708 -160 -673 c-88 -370 -160 -681 -160 -690
0 -23 19 -42 41 -42 10 0 321 72 691 160 l673 160 1703 1703 c937 936 1723
1729 1747 1762 73 102 145 271 145 341 0 20 5 24 30 24 l30 0 0 75 0 75 -29 0
c-26 0 -29 3 -35 48 -10 73 -67 210 -118 287 -59 89 -154 184 -243 243 -77 51
-214 108 -287 118 -45 6 -48 9 -48 35 l0 29 -75 0 -75 0 0 -30z m245 -125
c257 -49 461 -253 510 -510 34 -177 12 -367 -57 -505 l-43 -85 -54 -3 -55 -3
-448 448 -449 448 3 55 3 55 85 43 c48 24 115 49 155 56 94 19 256 19 350 1z
m-188 -697 l453 -453 0 -50 c0 -47 -3 -52 -62 -112 -60 -61 -64 -63 -113 -63
l-50 0 -452 452 -453 453 0 50 c0 47 3 52 62 112 60 61 64 63 113 63 l50 0
452 -452z m-265 -265 l448 -448 0 -55 c0 -53 -2 -56 -57 -112 -55 -55 -60 -58
-108 -58 l-50 0 -452 452 -453 453 0 50 c0 47 3 52 57 107 56 57 59 58 113 58
l55 0 447 -447z m-260 -260 l448 -448 0 -55 0 -55 -1267 -1267 -1268 -1268
-52 0 -53 0 0 68 c1 37 7 118 14 181 l14 114 1041 1041 c573 573 1041 1046
1041 1052 0 6 -7 17 -16 25 -13 11 -153 -125 -1062 -1033 l-1047 -1046 -195
-21 c-107 -12 -225 -21 -262 -21 l-68 0 0 68 c0 37 9 155 21 262 l21 195 1046
1047 c908 909 1044 1049 1033 1062 -8 9 -19 16 -25 16 -6 0 -479 -468 -1052
-1041 l-1041 -1041 -114 -14 c-63 -7 -144 -13 -181 -14 l-68 0 0 52 0 53 1267
1267 1268 1268 55 0 55 0 447 -447z m-2793 -2325 c0 -29 -11 -143 -23 -253
-25 -213 -24 -231 21 -253 11 -5 95 0 218 14 110 13 224 23 253 23 l52 1 0
-70 c0 -68 -37 -420 -44 -428 -12 -12 -968 -232 -1008 -232 l-48 0 0 54 c0 30
4 57 10 61 5 3 18 18 29 34 20 27 20 29 3 45 -17 14 -21 14 -53 -14 -28 -24
-43 -29 -86 -30 l-53 0 0 48 c0 40 221 996 233 1008 8 8 326 42 410 43 l87 1
-1 -52z"/>
</g>
</svg>
