<?xml version="1.0" standalone="no"?>
<!DOCTYPE svg PUBLIC "-//W3C//DTD SVG 20010904//EN"
 "http://www.w3.org/TR/2001/REC-SVG-20010904/DTD/svg10.dtd">
<svg version="1.0" xmlns="http://www.w3.org/2000/svg"
 width="1280.000000pt" height="853.000000pt" viewBox="0 0 1280.000000 853.000000"
 preserveAspectRatio="xMidYMid meet">

<g transform="translate(0.000000,853.000000) scale(0.100000,-0.100000)"
fill="#000000" stroke="none">
<path d="M6020 8309 c-1444 -56 -2797 -438 -3865 -1092 -541 -330 -1012 -753
-1337 -1199 -329 -450 -531 -952 -589 -1458 -15 -135 -15 -455 0 -590 101
-885 623 -1707 1506 -2370 732 -549 1676 -959 2728 -1185 1254 -268 2615 -268
3874 0 1044 223 1998 637 2728 1185 213 160 320 254 515 449 576 578 897 1191
986 1890 20 152 22 470 5 621 -56 491 -253 990 -561 1419 -134 188 -244 317
-434 507 -406 406 -836 709 -1414 999 -782 390 -1673 650 -2632 764 -501 60
-998 80 -1510 60z m1060 -444 c2192 -175 4001 -1087 4748 -2392 155 -272 261
-574 309 -883 24 -159 24 -491 0 -650 -114 -736 -559 -1414 -1297 -1977 -1138
-866 -2825 -1351 -4590 -1320 -904 17 -1722 150 -2512 411 -1622 535 -2767
1544 -3033 2671 -48 205 -59 307 -59 540 0 233 11 335 59 540 197 836 888
1626 1920 2192 892 490 2034 804 3175 872 102 7 208 13 235 15 125 9 865 -4
1045 -19z"/>
</g>
</svg>
